<svg id="Capa_1" enable-background="new 0 0 512 512" height="512" viewBox="0 0 512 512" width="512" xmlns="http://www.w3.org/2000/svg"><g><g><path d="m332.972 274.108h-156.032l-11.486 190.928h179.005zm-33.997 116.709c0 22.73-18.426 41.156-41.156 41.156h-3.639c-22.73 0-41.156-18.426-41.156-41.156v-25.83c0-22.73 18.426-41.156 41.156-41.156h3.639c22.73 0 41.156 18.426 41.156 41.156z" fill="#07b2cd"/><g fill="#0199b1"><path d="m244.662 324.95c-3.056-.724-6.24-1.119-9.518-1.119h-3.639c-22.73 0-41.156 18.426-41.156 41.156v25.83c0 22.73 18.426 41.156 41.156 41.156h3.639c3.278 0 6.462-.395 9.518-1.119-18.138-4.297-31.638-20.585-31.638-40.037v-25.83c.001-19.452 13.5-35.741 31.638-40.037z"/><path d="m332.972 274.108h-22.675l11.486 190.928h22.675z"/></g><path d="m504.5 343.727h-497v-281.176c0-17.524 14.206-31.729 31.729-31.729h433.542c17.524 0 31.729 14.206 31.729 31.729z" fill="#edf5fa"/><path d="m472.771 30.822h-433.542c-.003 0-.006 0-.01 0h410.245c17.524 0 31.729 14.206 31.729 31.729v281.176h23.307v-281.176c0-17.523-14.206-31.729-31.729-31.729z" fill="#d0e7f2"/><path d="m462.41 105.91v183.24c0 7.49-6.07 13.56-13.56 13.56h-385.7c-7.49 0-13.56-6.07-13.56-13.56v-183.24c0-7.49 6.07-13.55 13.56-13.55h385.7c7.49 0 13.56 6.06 13.56 13.55z" fill="#d0e7f2"/><path d="m448.85 302.71c7.49 0 13.56-6.07 13.56-13.56v-183.24c0-7.49-6.07-13.55-13.56-13.55h-23.48c7.45.05 13.46 6.09 13.46 13.55v183.24c0 7.49-6.07 13.56-13.56 13.56z" fill="#b7d9eb"/><path d="m173.84 92.36v210.35h-110.69c-7.49 0-13.56-6.07-13.56-13.56v-183.24c0-7.49 6.07-13.55 13.56-13.55z" fill="#00f2a6"/><path d="m150.053 92.36h23.787v210.35h-23.787z" fill="#05e39c"/><path d="m7.5 330.258v14.512c0 18.298 14.834 33.132 33.132 33.132h430.736c18.298 0 33.132-14.834 33.132-33.132v-14.512z" fill="#30dde5"/><path d="m481.197 330.258v14.512c0 18.298-14.717 33.132-33.015 33.132h23.186c18.298 0 33.132-14.833 33.132-33.132v-14.512z" fill="#02c7dd"/><path d="m462.41 105.91v91.62h-412.82v-91.62c0-7.49 6.07-13.55 13.56-13.55h385.7c7.49 0 13.56 6.06 13.56 13.55z" fill="#f6c2e0"/><path d="m359.654 92.36h21.826v105.17h-21.826z" fill="#f6a6d2"/><path d="m173.84 92.36v105.17h-124.25v-91.62c0-7.49 6.07-13.55 13.56-13.55z" fill="#fe5ca7"/><path d="m150.053 92.36h23.787v105.17h-23.787z" fill="#fe3d97"/><path d="m173.84 197.53h125.61v105.18h-125.61z" fill="#af66da"/><path d="m275.825 197.53h23.625v105.18h-23.625z" fill="#9857bd"/><path d="m462.41 105.91v91.62h-80.93v-105.17h67.37c7.49 0 13.56 6.06 13.56 13.55z" fill="#017297"/><path d="m448.85 92.36h-23.566c7.49 0 13.56 6.06 13.56 13.55v91.62h23.566v-91.62c0-7.49-6.07-13.55-13.56-13.55z" fill="#025f80"/></g><g><path d="m472.77 23.32h-433.54c-21.631 0-39.23 17.598-39.23 39.23v267.708 13.473 1.04c0 22.404 18.228 40.632 40.632 40.632h122.094l-4.337 72.135h-28.921c-14.123 0-27.183 7.655-34.082 19.978-2.024 3.614-.734 8.185 2.88 10.208 3.616 2.025 8.185.735 10.208-2.88 4.25-7.59 12.294-12.306 20.994-12.306h253.066c8.7 0 16.744 4.715 20.994 12.306 2.141 2.767 5.247 5.201 10.208 2.88 3.614-2.023 4.903-6.594 2.88-10.208-6.899-12.323-19.959-19.978-34.082-19.978h-31.011l-4.338-72.135h124.184c22.404 0 40.632-18.228 40.632-40.632 0 .356 0-13.719 0-14.513v-267.708c-.001-21.632-17.6-39.23-39.231-39.23zm-433.54 15h433.54c13.36 0 24.23 10.87 24.23 24.23v260.208h-482v-260.208c0-13.361 10.87-24.23 24.23-24.23zm297.265 419.217h-163.08l4.338-72.135h27.768v5.418c0 26.826 21.829 48.65 48.66 48.65h3.64c16.298 0 31.436-8.1 40.494-21.667 2.3-3.445 1.372-8.102-2.072-10.402-3.446-2.3-8.103-1.372-10.402 2.073-6.27 9.39-16.744 14.996-28.02 14.996h-3.64c-18.56 0-33.66-15.096-33.66-33.65v-5.418h111.637zm160.505-112.767c0 14.133-11.498 25.632-25.632 25.632h-430.736c-14.133 0-25.632-11.499-25.632-25.632v-1.04-5.973h482z"/><path d="m459.461 70.355c4.075 0 7.379-3.304 7.379-7.379s-3.304-7.379-7.379-7.379-7.379 3.304-7.379 7.379 3.304 7.379 7.379 7.379z"/><path d="m436.201 70.355c4.075 0 7.379-3.304 7.379-7.379s-3.304-7.379-7.379-7.379-7.379 3.304-7.379 7.379 3.304 7.379 7.379 7.379z"/><path d="m49.59 70.476h59.794c4.142 0 7.5-3.358 7.5-7.5s-3.358-7.5-7.5-7.5h-59.794c-4.142 0-7.5 3.358-7.5 7.5s3.358 7.5 7.5 7.5z"/><path d="m63.15 310.21h385.7c11.613 0 21.061-9.448 21.061-21.06v-183.24c-.001-4.574-2.295-11.564-6.949-15.581-3.739-3.386-8.68-5.469-14.111-5.469h-385.701c-11.013.088-21.098 9.281-21.06 21.05v91.62c0 4.142 3.358 7.5 7.5 7.5h.01 116.74v90.18h-103.19c-3.341 0-6.06-2.719-6.06-6.06v-56.453c0-4.142-3.358-7.5-7.5-7.5s-7.5 3.358-7.5 7.5v56.453c0 11.613 9.447 21.06 21.06 21.06zm385.7-15h-141.9v-90.18h74.518.006.009 73.427v84.12c0 3.341-2.719 6.06-6.06 6.06zm-267.51-195.35h192.64v90.17h-74.53-118.11zm273.57 13.261v76.909h-58.329zm-8.768-13.261-57.161 75.37v-75.37zm-389.052 6.05c0-3.336 2.719-6.05 6.06-6.05h103.19v90.17h-109.25zm124.25 99.12h110.61v90.18h-110.61z"/><path d="m112.847 109.73c-20.039 0-36.342 16.303-36.342 36.343 0 20.039 16.303 36.342 36.342 36.342 20.04 0 36.343-16.303 36.343-36.342-.001-20.039-16.304-36.343-36.343-36.343zm0 57.686c-11.768 0-21.342-9.574-21.342-21.342 0-11.769 9.574-21.343 21.342-21.343 11.769 0 21.343 9.574 21.343 21.343-.001 11.767-9.575 21.342-21.343 21.342z"/><path d="m272.675 140.721h33.734c4.143 0 7.5-3.358 7.5-7.5s-3.357-7.5-7.5-7.5h-33.734c-4.143 0-7.5 3.358-7.5 7.5s3.357 7.5 7.5 7.5z"/><path d="m351.958 161.825c0-4.142-3.357-7.5-7.5-7.5h-71.783c-4.143 0-7.5 3.358-7.5 7.5s3.357 7.5 7.5 7.5h71.783c4.143 0 7.5-3.358 7.5-7.5z"/><path d="m419.644 226.818h-35.674c-4.143 0-7.5 3.358-7.5 7.5s3.357 7.5 7.5 7.5h35.674c4.143 0 7.5-3.358 7.5-7.5s-3.358-7.5-7.5-7.5z"/><path d="m419.644 255.422h-71.784c-4.143 0-7.5 3.358-7.5 7.5s3.357 7.5 7.5 7.5h71.784c4.143 0 7.5-3.358 7.5-7.5s-3.358-7.5-7.5-7.5z"/><path d="m112.847 213.73c-4.142 0-7.5 3.358-7.5 7.5v19.939h-19.939c-4.142 0-7.5 3.358-7.5 7.5s3.358 7.5 7.5 7.5h19.939v19.939c0 4.142 3.358 7.5 7.5 7.5s7.5-3.358 7.5-7.5v-19.939h19.939c4.142 0 7.5-3.358 7.5-7.5s-3.358-7.5-7.5-7.5h-19.939v-19.939c0-4.142-3.358-7.5-7.5-7.5z"/><path d="m261.182 219.105h-50.976c-4.142 0-7.5 3.358-7.5 7.5v46.128c0 4.142 3.358 7.5 7.5 7.5h50.976c4.143 0 7.5-3.358 7.5-7.5v-46.128c0-4.142-3.358-7.5-7.5-7.5zm-7.5 46.128h-35.976v-31.128h35.976z"/><path d="m347.86 241.697c4.075 0 7.379-3.304 7.379-7.379s-3.303-7.379-7.379-7.379-7.379 3.304-7.379 7.379 3.303 7.379 7.379 7.379z"/></g></g></svg>